<?xml version="1.0" encoding="utf-8"?>
<!-- Generator: Adobe Illustrator 14.0.0, SVG Export Plug-In . SVG Version: 6.00 Build 43363)  -->
<!DOCTYPE svg PUBLIC "-//W3C//DTD SVG 1.1//EN" "http://www.w3.org/Graphics/SVG/1.1/DTD/svg11.dtd">
<svg version="1.1" id="Layer_1" xmlns="http://www.w3.org/2000/svg" xmlns:xlink="http://www.w3.org/1999/xlink" x="0px" y="0px"
	 width="10.792px" height="30.321px" viewBox="0 0 10.792 30.321" enable-background="new 0 0 10.792 30.321" xml:space="preserve">
<g>
	<path fill="#FFFFFF" d="M1.349,0v16.376c1.525-1.365,3.251-2.063,5.177-2.095c1.172-0.016,2.176,0.45,3.011,1.397
		c0.786,0.899,1.204,1.942,1.253,3.131c0.031,0.899-0.193,1.935-0.675,3.106c-0.192,0.466-0.569,0.972-1.132,1.518
		c-0.306,0.288-0.764,0.714-1.373,1.276C5.073,26.555,2.536,28.426,0,30.321V0H1.349z M5.515,17.532
		c-0.434-0.481-0.98-0.723-1.638-0.723c-0.834,0-1.493,0.467-1.974,1.397c-0.371,0.707-0.554,2.394-0.554,5.058v4.408
		c0.016,0.127,0.971-0.707,2.866-2.506c1.011-0.963,1.676-2.087,1.999-3.371c0.128-0.529,0.193-1.043,0.193-1.542
		C6.407,19.114,6.108,18.207,5.515,17.532z"/>
</g>
</svg>
